<?xml version="1.0" encoding="UTF-8"?>
<svg id="Layer_1" data-name="Layer 1" xmlns="http://www.w3.org/2000/svg" xmlns:xlink="http://www.w3.org/1999/xlink" version="1.1" viewBox="0 0 1080 519.8">
  <defs>
    <style>
      .cls-1 {
        clip-path: url(#clippath);
      }

      .cls-2 {
        fill: none;
      }

      .cls-2, .cls-3, .cls-4 {
        stroke-width: 0px;
      }

      .cls-5 {
        clip-path: url(#clippath-1);
      }

      .cls-6 {
        clip-path: url(#clippath-4);
      }

      .cls-7 {
        clip-path: url(#clippath-3);
      }

      .cls-8 {
        clip-path: url(#clippath-2);
      }

      .cls-9 {
        clip-path: url(#clippath-7);
      }

      .cls-10 {
        clip-path: url(#clippath-6);
      }

      .cls-11 {
        clip-path: url(#clippath-5);
      }

      .cls-12 {
        isolation: isolate;
      }

      .cls-3 {
        fill: #fff;
      }

      .cls-4 {
        fill: #231f20;
      }
    </style>
    <clipPath id="clippath">
      <ellipse class="cls-2" cx="-607.9" cy="868.5" rx="453.7" ry="184.4"/>
    </clipPath>
    <clipPath id="clippath-1">
      <rect class="cls-2" x="-1147.9" y="358.3" width="1080" height="1020.5"/>
    </clipPath>
    <clipPath id="clippath-2">
      <rect class="cls-2" x="-1228.2" y="43.3" width="1233.9" height="1739.4"/>
    </clipPath>
    <clipPath id="clippath-3">
      <rect class="cls-2" x="-1809.9" y="-285.7" width="2397.4" height="2397.4"/>
    </clipPath>
    <clipPath id="clippath-4">
      <ellipse class="cls-2" cx="-607.9" cy="254.6" rx="453.7" ry="184.4"/>
    </clipPath>
    <clipPath id="clippath-5">
      <rect class="cls-2" x="-1147.9" y="-255.7" width="1080" height="1020.5"/>
    </clipPath>
    <clipPath id="clippath-6">
      <rect class="cls-2" x="-1228.2" y="-570.7" width="1233.9" height="1739.4"/>
    </clipPath>
    <clipPath id="clippath-7">
      <rect class="cls-2" x="-1809.9" y="-899.7" width="2397.4" height="2397.4"/>
    </clipPath>
  </defs>
  <g class="cls-1">
    <g class="cls-5">
      <g class="cls-8">
        <g class="cls-7">
          <image class="cls-12" width="7092" height="7093" transform="translate(-1809.8 -321) scale(.3)" xlink:href="TGE25 - Logos -02-1.png"/>
        </g>
      </g>
    </g>
  </g>
  <g class="cls-6">
    <g class="cls-11">
      <g class="cls-10">
        <g class="cls-9">
          <image class="cls-12" width="7092" height="7090" transform="translate(-1809.9 -934.6) scale(.3)" xlink:href="TGE25 - Logos -02-2.png"/>
        </g>
      </g>
    </g>
  </g>
  <ellipse class="cls-4" cx="544.6" cy="254.6" rx="453.7" ry="184.4"/>
  <g>
    <path class="cls-3" d="M200.4,199.1h-26.9v-18.6h82.9v18.6h-26.9v55.1h-29.1v-55.1h0Z"/>
    <path class="cls-3" d="M324.9,224.8h-32.7v29.4h-29.1v-73.7h29.1v25.7h32.7v-25.7h29.1v73.6h-29.1v-29.4h0Z"/>
    <path class="cls-3" d="M361.2,180.6h78.3v17.9h-49.2v9.9h45.7v17.9h-45.7v9.9h49.2v17.9h-78.3v-73.6h0Z"/>
    <path class="cls-3" d="M519,212.2h41.4v42h-12.5l-3.3-6.7c-3.8,3.4-8.2,5.8-13.4,7.2-5.2,1.4-11.9,2.1-20.3,2.1s-11.7-.5-17.1-1.5-10.5-2.9-15.2-5.6-8.6-6.8-11.5-12c-2.9-5.3-4.4-11.9-4.4-20s1.4-14.2,4.1-19.4c2.8-5.2,6.5-9.3,11.1-12.3,4.6-3,9.8-5,15.3-6.2,5.6-1.2,11.4-1.8,17.5-1.8,16.2,0,28.2,2.2,36.3,6.8,8,4.5,12.6,11.5,13.8,21.1h-32.8c-.8-3.5-2.7-6-5.7-7.5-2.4-1.2-5.7-1.8-9.9-1.8-6.2,0-11,1.7-14.3,5-3.4,3.3-5,8.6-5,15.8,0,13.9,7.2,20.8,21.7,20.8s8.1-.8,10.7-2.4c2.6-1.6,4.5-3.9,5.6-6.9h-12v-16.7h0Z"/>
    <path class="cls-3" d="M567.1,180.6h61.3c4.2,0,7.7.2,10.4.6,2.7.4,5.1,1.1,7.1,2.1,2.8,1.4,5.2,3.7,7.1,7,1.9,3.3,2.9,6.9,2.9,10.8s-.9,7.3-2.7,10.4c-1.8,3.1-4.7,5.2-8.6,6.4v.2c2.3.6,4.2,1.9,5.7,3.8,1.5,1.9,2.4,4.4,2.7,7.5l1.2,16.1c.1,1.6.5,3.1,1.2,4.6.7,1.5,1.5,2.9,2.4,4h-31.8c-.4-.8-.7-1.9-.8-3.3-.1-1.4-.3-3.6-.5-6.8,0-1.1-.1-2.4-.2-3.8-.1-2.9-.8-5.1-2-6.6-1.2-1.5-3-2.2-5.6-2.2h-20.6v22.7h-29.1v-73.7h0ZM596.2,212.9h20.6c5.4,0,8-2.3,8-6.9s-.7-4.4-2.2-5.4c-1.5-1-3.6-1.5-6.2-1.5h-20.2v13.8h0Z"/>
    <path class="cls-3" d="M662.6,180.6h78.3v17.9h-49.2v9.9h45.7v17.9h-45.7v9.9h49.2v17.9h-78.3v-73.6h0Z"/>
    <path class="cls-3" d="M776.8,180.6h35.7l31.4,73.7h-30.9l-3.1-8.5h-30.3l-3.1,8.5h-30.9l31.4-73.6h0ZM794.7,202.8h-.2l-8.7,25h17.5l-8.7-25h0Z"/>
    <path class="cls-3" d="M859.8,199.1h-26.9v-18.6h82.9v18.6h-26.9v55.1h-29.1v-55.1Z"/>
  </g>
  <g>
    <path class="cls-3" d="M268.9,266h78.3v18h-49.2v9.9h45.7v18h-45.7v9.9h49.2v18h-78.3v-73.6h0Z"/>
    <path class="cls-3" d="M373.2,308.4c-6.8-1-11.9-3.4-15.2-7.1-3.3-3.7-5-8.2-5-13.7s1.1-8.5,3.2-11.7c2.1-3.2,5.1-5.7,8.9-7.5,3.8-1.8,8.2-3.1,13.3-3.9,5-.8,10.8-1.2,17.2-1.2,16,0,27.7,2,35.2,6s11.6,10.1,12.1,18.1h-33.8c0-2.8-1.5-4.8-4.4-5.9-2.3-1-5.4-1.5-9.1-1.5s-7.1.5-8.9,1.4c-1.8.9-2.7,2.2-2.7,3.9s1.3,3.5,3.8,3.8l34.8,5.2c7.6,1.1,13.4,3.4,17.5,7,4.1,3.6,6.2,8.4,6.2,14.4,0,9-3.8,15.7-11.5,20s-19.6,6.5-35.9,6.5-12.4-.3-17.7-.9c-5.3-.6-10.2-1.8-14.6-3.5s-7.9-4.2-10.6-7.6-4-7.6-4-12.7h35.1c.1,2.4,1.2,4.2,3.1,5.3,2.2,1,5.5,1.5,9.9,1.5s7.2-.5,9-1.5,2.6-2.5,2.6-4.4-.4-2.3-1.2-3.2c-.8-.9-2.2-1.5-4-1.8l-33.2-5h0Z"/>
    <path class="cls-3" d="M548.5,310.9c-1,5.2-2.5,9.7-4.4,13.5s-4.6,6.9-8,9.4c-3.7,2.8-8.4,4.8-14.2,6.2s-13.1,2.1-21.8,2.1-11.8-.3-17-1c-5.2-.6-10.4-2.2-15.6-4.8-5.2-2.5-9.4-6.5-12.7-12s-5-12.7-5-21.6,1.7-16.1,5-21.6c3.3-5.5,7.6-9.5,12.7-12,5.2-2.5,10.4-4.1,15.6-4.8,5.2-.6,10.9-1,17-1s10.7.3,15.6,1c4.9.6,9.7,2,14.4,4.1s8.7,5.3,12,9.6c3.3,4.3,5.5,9.9,6.3,16.8h-32.8c-.2-1.5-.6-3-1.2-4.4-.6-1.4-1.5-2.8-2.7-4.1-1.2-1.3-2.8-2.4-4.7-3.1-2-.8-4.2-1.2-6.9-1.2-6.2,0-11,1.7-14.3,5-3.4,3.3-5,8.6-5,15.8s1.6,12.4,4.7,15.8,7.6,5,13.2,5,8.4-1,11.1-3,4.7-5.2,5.9-9.6h32.8,0Z"/>
    <path class="cls-3" d="M575.2,266h35.7l31.4,73.6h-30.9l-3.1-8.5h-30.3l-3.1,8.5h-30.9l31.4-73.6h0ZM593.2,288.2h-.2l-8.7,25h17.5l-8.7-25Z"/>
    <path class="cls-3" d="M647.6,266h60c10,0,17.2,2.1,21.6,6.5,4.4,4.3,6.7,10.7,6.7,19.2s-.5,7-1.5,10c-1,3-2.7,5.7-4.8,7.9-2.2,2.3-5.1,4-8.7,5.3-3.6,1.2-7.9,1.9-13,1.9h-31.2v22.9h-29.1v-73.6h0ZM676.7,298.8h18.8c3.6,0,6.2-.6,7.8-1.8,1.5-1.2,2.3-3.1,2.3-5.8s-.8-4.8-2.3-6-4.1-1.8-7.8-1.8h-18.8v15.5h0Z"/>
    <path class="cls-3" d="M742.1,266h78.3v18h-49.2v9.9h45.7v18h-45.7v9.9h49.2v18h-78.3v-73.6h0Z"/>
  </g>
  <g>
    <g class="cls-12">
      <path class="cls-3" d="M274.8,367.6h-4.8v-3.9h.9c1.4,0,2.5-.2,3.3-.6.8-.4,1.3-1.1,1.7-2.2h4.7v15.6h-5.9v-8.9Z"/>
      <path class="cls-3" d="M284.5,370.2l9-9.3h8.1v9.5h2.9v3.8h-2.9v2.4h-5.6v-2.4h-11.5v-3.9ZM296,364.6l-5.7,5.7h5.7v-5.7Z"/>
      <path class="cls-3" d="M329.9,367.6h-4.8v-3.9h.9c1.4,0,2.5-.2,3.3-.6.8-.4,1.3-1.1,1.7-2.2h4.7v15.6h-5.9v-8.9Z"/>
      <path class="cls-3" d="M339.3,360.9h19.5v4.9c-1.5,1.1-2.8,2.1-3.9,3-1.1.9-2,1.8-2.7,2.7-.7.9-1.3,1.7-1.7,2.5-.4.8-.7,1.7-.8,2.5h-8.1c.1-1,.3-1.9.7-2.7.3-.8.9-1.6,1.6-2.5.8-.8,1.8-1.8,3.1-2.8s3-2.2,5.1-3.6h0s-12.8,0-12.8,0v-4.1Z"/>
      <path class="cls-3" d="M370.2,360.4h8.9l2.6,9.3h0l2.6-9.3h8.9v16.1h-5.8v-11.5h0l-3.4,11.5h-4.8l-3.4-11.5h0v11.5h-5.8v-16.1Z"/>
    </g>
    <g class="cls-12">
      <path class="cls-3" d="M401,360.4h7.8l6.8,16.1h-6.8l-.7-1.8h-6.6l-.7,1.8h-6.8l6.8-16.1ZM404.9,365.3h0l-1.9,5.4h3.8l-1.9-5.4Z"/>
    </g>
    <g class="cls-12">
      <path class="cls-3" d="M419.9,372l-7.1-11.5h7.2l3.1,6.3,3.1-6.3h7.2l-7.1,11.5v4.5h-6.3v-4.5Z"/>
      <path class="cls-3" d="M454.5,366.8c.8-.2,1.2-.6,1.2-1.2s-.2-.8-.7-1c-.5-.2-1.1-.3-1.9-.3s-1,0-1.4,0c-.4,0-.7.1-1.1.3s-.6.4-.8.7c-.2.3-.3.7-.4,1.2h-6.8c.1-1.3.5-2.3,1.1-3.2.6-.8,1.4-1.4,2.3-1.9.9-.4,1.9-.7,2.9-.9,1-.2,2.1-.2,3.3-.2s2.7,0,3.9.2c1.2.2,2.2.4,3.1.8s1.6.9,2.2,1.6c.5.7.8,1.6.8,2.6s-.2,1.3-.5,1.9c-.3.5-.7,1-1.3,1.4-.5.4-1.1.6-1.7.9-.6.2-1.2.4-1.9.5l-5.6,1.1c-.7.1-1.2.3-1.6.5-.4.2-.7.4-.9.7h13.1v3.9h-19.8c0-1.4.3-2.7.7-3.7.4-1,1-1.9,1.7-2.5.7-.6,1.5-1.2,2.4-1.5s1.8-.7,2.9-.9l4.6-1Z"/>
      <path class="cls-3" d="M466.7,362.6c1.7-1.4,4.2-2.1,7.4-2.1s5.7.7,7.4,2.1c1.7,1.4,2.5,3.5,2.5,6.1s-.9,4.6-2.6,6.1c-1.7,1.4-4.2,2.1-7.5,2.1s-5.7-.7-7.4-2.1c-1.7-1.4-2.6-3.4-2.6-6,0-2.7.9-4.7,2.6-6.1ZM470.5,370.2c.2.5.4.9.7,1.3.3.4.7.7,1.2.9s1.1.3,1.7.3,1.2-.1,1.7-.3c.5-.2.9-.5,1.2-.9.3-.4.5-.8.7-1.3.1-.5.2-1,.2-1.6s0-1.1-.2-1.6c-.2-.5-.4-1-.7-1.4-.3-.4-.7-.7-1.2-.9-.5-.2-1.1-.3-1.8-.3s-1.2.1-1.7.3c-.5.2-.9.5-1.2.9s-.6.8-.7,1.4c-.2.5-.2,1-.2,1.6,0,.5.1,1,.3,1.5Z"/>
      <path class="cls-3" d="M497.9,366.8c.8-.2,1.2-.6,1.2-1.2s-.2-.8-.7-1c-.5-.2-1.1-.3-1.9-.3s-1,0-1.4,0c-.4,0-.7.1-1.1.3s-.6.4-.8.7c-.2.3-.3.7-.4,1.2h-6.8c.1-1.3.5-2.3,1.1-3.2.6-.8,1.4-1.4,2.3-1.9.9-.4,1.9-.7,2.9-.9,1-.2,2.1-.2,3.3-.2s2.7,0,3.9.2c1.2.2,2.2.4,3.1.8s1.6.9,2.2,1.6c.5.7.8,1.6.8,2.6s-.2,1.3-.5,1.9c-.3.5-.7,1-1.3,1.4-.5.4-1.1.6-1.7.9-.6.2-1.2.4-1.9.5l-5.6,1.1c-.7.1-1.2.3-1.6.5-.4.2-.7.4-.9.7h13.1v3.9h-19.8c0-1.4.3-2.7.7-3.7.4-1,1-1.9,1.7-2.5.7-.6,1.5-1.2,2.4-1.5s1.8-.7,2.9-.9l4.6-1Z"/>
      <path class="cls-3" d="M510.1,360.9h16.4v3.8h-12.5l-.3,1.6c1.4-.4,2.9-.5,4.5-.5s2.1,0,3.1.2c1,.1,2,.4,2.9.8.9.4,1.7.9,2.3,1.7.6.8.9,1.7.9,2.9s-.2,1.6-.6,2.3c-.4.7-1,1.3-1.8,1.8s-1.8.9-3.1,1.2c-1.2.3-2.7.4-4.4.4-3.5,0-5.9-.5-7.5-1.4-1.5-.9-2.4-2.3-2.5-4.2h6.6c.1.5.4.9.8,1.1.5.3,1.3.4,2.4.4s2.1-.1,2.7-.4c.6-.3.9-.7.9-1.3s-.3-1.2-1-1.5c-.7-.3-1.6-.5-2.9-.5s-1.1,0-1.6.2c-.5.1-.8.2-1.1.4h-6.1l1.7-8.9Z"/>
      <path class="cls-3" d="M575.8,360.4h14.5c1.6,0,2.8.3,3.6,1s1.2,1.7,1.2,3-.2,1.4-.5,1.9c-.3.6-.8,1-1.4,1.2h0c.5.2.9.4,1.3.7.4.3.6.6.9.9.2.4.4.7.5,1.1s.1.7.1,1c0,.8-.1,1.5-.3,2.2s-.6,1.2-1.1,1.6c-.5.5-1.1.8-1.9,1-.8.2-1.8.4-2.9.4h-13.8v-16.1ZM582.1,366.4h4.8c.6,0,1,0,1.2-.3.2-.2.3-.4.3-.8s-.1-.6-.3-.8c-.2-.2-.6-.3-1.2-.3h-4.8v2.1ZM582.1,372.6h5.4c.6,0,1-.1,1.3-.3.3-.2.4-.5.4-.9s-.1-.7-.4-.9c-.3-.2-.7-.3-1.3-.3h-5.4v2.5Z"/>
      <path class="cls-3" d="M598.4,360.4h13.4c.9,0,1.7,0,2.3.1.6,0,1.1.2,1.5.5.6.3,1.1.8,1.6,1.5.4.7.6,1.5.6,2.4s-.2,1.6-.6,2.3c-.4.7-1,1.1-1.9,1.4h0c.5.2.9.5,1.2.9.3.4.5,1,.6,1.6l.3,3.5c0,.3.1.7.3,1s.3.6.5.9h-6.9c0-.2-.2-.4-.2-.7,0-.3,0-.8-.1-1.5,0-.2,0-.5,0-.8,0-.6-.2-1.1-.4-1.4-.3-.3-.7-.5-1.2-.5h-4.5v5h-6.3v-16.1ZM604.7,367.5h4.5c1.2,0,1.8-.5,1.8-1.5s-.2-1-.5-1.2c-.3-.2-.8-.3-1.4-.3h-4.4v3Z"/>
      <path class="cls-3" d="M620.1,360.4h6.3v16.1h-6.3v-16.1Z"/>
      <path class="cls-3" d="M641,367.3h9v9.2h-2.7l-.7-1.5c-.8.7-1.8,1.3-2.9,1.6-1.1.3-2.6.5-4.4.5s-2.5-.1-3.7-.3-2.3-.6-3.3-1.2c-1-.6-1.9-1.5-2.5-2.6-.6-1.1-1-2.6-1-4.4s.3-3.1.9-4.2c.6-1.1,1.4-2,2.4-2.7,1-.6,2.1-1.1,3.3-1.4,1.2-.3,2.5-.4,3.8-.4,3.5,0,6.2.5,7.9,1.5,1.7,1,2.8,2.5,3,4.6h-7.2c-.2-.8-.6-1.3-1.2-1.6-.5-.3-1.2-.4-2.2-.4-1.4,0-2.4.4-3.1,1.1s-1.1,1.9-1.1,3.5c0,3,1.6,4.5,4.7,4.5s1.8-.2,2.3-.5,1-.9,1.2-1.5h-2.6v-3.6Z"/>
      <path class="cls-3" d="M666.4,370.1h-7.1v6.4h-6.3v-16.1h6.3v5.6h7.1v-5.6h6.3v16.1h-6.3v-6.4Z"/>
      <path class="cls-3" d="M680.1,364.5h-5.9v-4.1h18.1v4.1h-5.9v12h-6.3v-12Z"/>
      <path class="cls-3" d="M694.1,363.7c.7-1.2,1.7-2.1,2.8-2.6,1.1-.6,2.3-.9,3.4-1,1.1-.1,2.4-.2,3.7-.2s2.6,0,3.7.2,2.3.5,3.4,1c1.1.6,2.1,1.4,2.8,2.6.7,1.2,1.1,2.8,1.1,4.7s-.4,3.5-1.1,4.7c-.7,1.2-1.7,2.1-2.8,2.6-1.1.6-2.3.9-3.4,1s-2.4.2-3.7.2-2.6,0-3.7-.2c-1.1-.1-2.3-.5-3.4-1-1.1-.6-2.1-1.4-2.8-2.6-.7-1.2-1.1-2.8-1.1-4.7s.4-3.5,1.1-4.7ZM700.8,371.9c.7.7,1.8,1.1,3.1,1.1s2.4-.4,3.1-1.1c.7-.7,1.1-1.9,1.1-3.5s-.4-2.7-1.1-3.5-1.8-1.1-3.1-1.1-2.4.4-3.1,1.1-1.1,1.9-1.1,3.5.4,2.7,1.1,3.5Z"/>
      <path class="cls-3" d="M717.2,360.4h7.2l6.4,8.9h0v-8.9h6.1v16.1h-7l-6.8-9h0v9h-6.1v-16.1Z"/>
      <path class="cls-3" d="M749.1,367.9h8.2v3.9h-8.2v-3.9Z"/>
      <path class="cls-3" d="M769,360.4h6.3v9.7c0,1,.3,1.7.8,2.1.5.4,1.4.6,2.5.6s1.9-.2,2.5-.6c.5-.4.8-1.1.8-2.1v-9.7h6.3v10c0,1.3-.2,2.3-.6,3.2-.4.9-1,1.5-1.8,2s-1.8.9-3,1.1c-1.2.2-2.6.3-4.3.3s-3.1-.1-4.3-.3c-1.2-.2-2.2-.6-3-1.1s-1.4-1.2-1.8-2c-.4-.9-.6-1.9-.6-3.2v-10Z"/>
      <path class="cls-3" d="M799.4,370.3l-2.1,1.8v4.3h-6.3v-16.1h6.3v5.7l5.9-5.7h8.4l-7.2,6.2,7.8,9.9h-8.4l-4.4-6.2Z"/>
    </g>
    <polygon class="cls-3" points="552.8 363.5 556.4 358.2 556.2 364.6 562.2 362.4 558.3 367.5 564.4 369.3 558.3 371 562.2 376.1 556.2 374 556.4 380.3 552.8 375.1 549.2 380.3 549.4 374 543.5 376.1 547.3 371 541.2 369.3 547.3 367.5 543.5 362.4 549.4 364.6 549.2 358.2 552.8 363.5"/>
    <polygon class="cls-3" points="320.6 369.1 317.9 371.7 312.1 377.6 312.1 372.3 315.3 369.1 312.1 365.9 312.1 360.7 320.6 369.1"/>
  </g>
  <g>
    <g class="cls-12">
      <path class="cls-3" d="M282.6,148.2h-6.8v-4.7h20.9v4.7h-6.8v13.9h-7.3v-13.9Z"/>
      <path class="cls-3" d="M313.9,154.7h-8.2v7.4h-7.3v-18.6h7.3v6.5h8.2v-6.5h7.3v18.6h-7.3v-7.4Z"/>
      <path class="cls-3" d="M324.9,143.6h19.7v4.5h-12.4v2.5h11.5v4.5h-11.5v2.5h12.4v4.5h-19.7v-18.6Z"/>
      <path class="cls-3" d="M357.6,143.6h18.8v4.5h-11.5v2.8h10.6v4.5h-10.6v6.7h-7.3v-18.6Z"/>
      <path class="cls-3" d="M378.3,143.6h19.7v4.5h-12.4v2.5h11.5v4.5h-11.5v2.5h12.4v4.5h-19.7v-18.6Z"/>
      <path class="cls-3" d="M404.6,154.2c-1.7-.3-3-.9-3.8-1.8-.8-.9-1.2-2.1-1.2-3.4s.3-2.1.8-2.9c.5-.8,1.3-1.4,2.2-1.9s2.1-.8,3.4-1,2.7-.3,4.3-.3c4,0,7,.5,8.9,1.5,1.9,1,2.9,2.5,3.1,4.6h-8.5c0-.7-.4-1.2-1.1-1.5-.6-.3-1.4-.4-2.3-.4s-1.8.1-2.2.4c-.5.2-.7.6-.7,1s.3.9,1,1l8.8,1.3c1.9.3,3.4.9,4.4,1.8,1,.9,1.6,2.1,1.6,3.6,0,2.3-1,3.9-2.9,5s-4.9,1.6-9,1.6-3.1,0-4.5-.2c-1.3-.2-2.6-.5-3.7-.9s-2-1.1-2.7-1.9c-.7-.8-1-1.9-1-3.2h8.8c0,.6.3,1,.8,1.3.6.3,1.4.4,2.5.4s1.8-.1,2.3-.4c.4-.3.6-.6.6-1.1s-.1-.6-.3-.8c-.2-.2-.5-.4-1-.4l-8.4-1.2Z"/>
      <path class="cls-3" d="M430.4,148.2h-6.8v-4.7h20.9v4.7h-6.8v13.9h-7.3v-13.9Z"/>
      <path class="cls-3" d="M446.3,143.6h7.3v18.6h-7.3v-18.6Z"/>
    </g>
    <g class="cls-12">
      <path class="cls-3" d="M454.4,143.6h8.1l4.1,11.9h0l4.1-11.9h8.1l-8.3,18.6h-7.7l-8.3-18.6Z"/>
    </g>
    <g class="cls-12">
      <path class="cls-3" d="M483.2,143.6h9l7.9,18.6h-7.8l-.8-2.1h-7.6l-.8,2.1h-7.8l7.9-18.6ZM487.8,149.2h0l-2.2,6.3h4.4l-2.2-6.3Z"/>
      <path class="cls-3" d="M501.1,143.6h7.3v13.6h11.4v5h-18.7v-18.6Z"/>
      <path class="cls-3" d="M532.4,143.6h18.8v4.5h-11.5v2.8h10.6v4.5h-10.6v6.7h-7.3v-18.6Z"/>
      <path class="cls-3" d="M553.3,147.4c.8-1.4,1.9-2.4,3.2-3s2.6-1,3.9-1.2,2.7-.2,4.3-.2,3,0,4.3.2,2.6.6,3.9,1.2,2.4,1.7,3.2,3c.8,1.4,1.3,3.2,1.3,5.4s-.4,4.1-1.3,5.4-1.9,2.4-3.2,3-2.6,1-3.9,1.2c-1.3.2-2.7.2-4.3.2s-3,0-4.3-.2c-1.3-.2-2.6-.6-3.9-1.2s-2.4-1.7-3.2-3-1.3-3.2-1.3-5.4.4-4.1,1.3-5.4ZM561.1,156.8c.8.8,2.1,1.3,3.6,1.3s2.8-.4,3.6-1.3c.8-.8,1.3-2.2,1.3-4s-.4-3.1-1.3-4c-.8-.8-2.1-1.3-3.6-1.3s-2.8.4-3.6,1.3c-.8.8-1.3,2.2-1.3,4s.4,3.2,1.3,4Z"/>
      <path class="cls-3" d="M580,143.6h15.4c1.1,0,1.9,0,2.6.2.7.1,1.3.3,1.8.5.7.3,1.3.9,1.8,1.8s.7,1.7.7,2.7-.2,1.8-.7,2.6c-.5.8-1.2,1.3-2.2,1.6h0c.6.2,1,.5,1.4,1s.6,1.1.7,1.9l.3,4.1c0,.4.1.8.3,1.2.2.4.4.7.6,1h-8c-.1-.2-.2-.5-.2-.8,0-.3,0-.9-.1-1.7,0-.3,0-.6,0-1,0-.7-.2-1.3-.5-1.7-.3-.4-.8-.6-1.4-.6h-5.2v5.7h-7.3v-18.6ZM587.4,151.7h5.2c1.4,0,2-.6,2-1.7s-.2-1.1-.6-1.4c-.4-.3-.9-.4-1.6-.4h-5.1v3.5Z"/>
      <path class="cls-3" d="M615.7,143.6h8.4l7.4,10.3h0v-10.3h7v18.6h-8l-7.8-10.4h0v10.4h-7v-18.6Z"/>
      <path class="cls-3" d="M642.2,143.6h19.7v4.5h-12.4v2.5h11.5v4.5h-11.5v2.5h12.4v4.5h-19.7v-18.6Z"/>
      <path class="cls-3" d="M662.5,143.6h7.1l2.4,11.3h0l2.7-11.3h5.8l2.7,11.3h0l2.4-11.3h7.1l-5.4,18.6h-7.2l-2.5-10.3h0l-2.5,10.3h-7.2l-5.4-18.6Z"/>
      <path class="cls-3" d="M705.2,143.6h10.3l3,10.8h0l3-10.8h10.3v18.6h-6.7v-13.3h0l-3.9,13.3h-5.6l-3.9-13.3h0v13.3h-6.7v-18.6Z"/>
      <path class="cls-3" d="M735.2,143.6h7.3v11.2c0,1.1.3,2,.9,2.4.6.5,1.6.7,2.8.7s2.2-.2,2.8-.7c.6-.5.9-1.3.9-2.4v-11.2h7.3v11.5c0,1.5-.2,2.7-.7,3.7-.5,1-1.1,1.8-2,2.4-.9.6-2,1-3.4,1.3s-3,.4-5,.4-3.6-.1-5-.4-2.5-.7-3.4-1.3c-.9-.6-1.6-1.4-2-2.4-.5-1-.7-2.2-.7-3.7v-11.5Z"/>
      <path class="cls-3" d="M764.8,154.2c-1.7-.3-3-.9-3.8-1.8-.8-.9-1.2-2.1-1.2-3.4s.3-2.1.8-2.9c.5-.8,1.3-1.4,2.2-1.9,1-.5,2.1-.8,3.4-1s2.7-.3,4.3-.3c4,0,7,.5,8.9,1.5,1.9,1,2.9,2.5,3.1,4.6h-8.5c0-.7-.4-1.2-1.1-1.5-.6-.3-1.4-.4-2.3-.4s-1.8.1-2.2.4c-.5.2-.7.6-.7,1s.3.9,1,1l8.8,1.3c1.9.3,3.4.9,4.4,1.8,1,.9,1.6,2.1,1.6,3.6,0,2.3-1,3.9-2.9,5s-4.9,1.6-9,1.6-3.1,0-4.5-.2c-1.3-.2-2.6-.5-3.7-.9-1.1-.4-2-1.1-2.7-1.9-.7-.8-1-1.9-1-3.2h8.8c0,.6.3,1,.8,1.3.6.3,1.4.4,2.5.4s1.8-.1,2.3-.4c.4-.3.7-.6.7-1.1s-.1-.6-.3-.8c-.2-.2-.5-.4-1-.4l-8.4-1.2Z"/>
      <path class="cls-3" d="M785.7,143.6h7.3v18.6h-7.3v-18.6Z"/>
      <path class="cls-3" d="M820.6,154.9c-.3,1.3-.6,2.4-1.1,3.4-.5.9-1.1,1.7-2,2.4-.9.7-2.1,1.2-3.6,1.6-1.5.4-3.3.5-5.5.5s-3,0-4.3-.2c-1.3-.2-2.6-.6-3.9-1.2-1.3-.6-2.4-1.7-3.2-3-.8-1.4-1.3-3.2-1.3-5.4s.4-4.1,1.3-5.4c.8-1.4,1.9-2.4,3.2-3,1.3-.6,2.6-1,3.9-1.2s2.7-.2,4.3-.2,2.7,0,3.9.2,2.4.5,3.6,1,2.2,1.3,3,2.4,1.4,2.5,1.6,4.2h-8.3c0-.4-.2-.8-.3-1.1-.2-.4-.4-.7-.7-1-.3-.3-.7-.6-1.2-.8-.5-.2-1.1-.3-1.7-.3-1.6,0-2.8.4-3.6,1.3-.8.8-1.3,2.2-1.3,4s.4,3.1,1.2,4,1.9,1.3,3.3,1.3,2.1-.3,2.8-.8c.7-.5,1.2-1.3,1.5-2.4h8.3Z"/>
    </g>
  </g>
</svg>